<?xml version="1.0" encoding="UTF-8"?>
<svg version="1.1" viewBox="0 0 1052.4 744.09" xmlns="http://www.w3.org/2000/svg">
<defs>
<filter id="c">
<feGaussianBlur stdDeviation="6.3932257"/>
</filter>
<filter id="b">
<feGaussianBlur stdDeviation="6.0404223"/>
</filter>
<filter id="a">
<feGaussianBlur stdDeviation="6.64981"/>
</filter>
</defs>
<g transform="translate(0 -308.27)">
<rect x="4.4046" y="310.53" width="1042.1" height="454.11" color="#000000" fill="#025"/>
<rect x="4.2764" y="760.5" width="1042.4" height="287.59" color="#000000" fill="#00112b"/>
<g transform="matrix(.72027 -.6937 .6937 .72027 -354.37 592.64)">
<path d="m155.62 767c-2.2458-5.0055-4.5326-11.146-5.0817-13.646-0.87102-3.9657-0.61739-4.5454 1.9887-4.5454 3.3731 0 4.0865-4.0718 1.2162-6.942-1.4034-1.4034-1.1054-1.9448 1.4365-2.6095 4.0278-1.0533 4.1995-3.3766 0.24957-3.3766-1.6267 0-2.5582-0.64641-2.0699-1.4365 0.48827-0.79005 2.0422-1.4365 3.4533-1.4365 2.371 0 7.3202-4.1328 7.3202-6.1127 0-0.4724-1.1312-1.1545-2.5138-1.5158-1.3826-0.3613-0.51317-0.73191 1.932-0.82355 4.8953-0.18348 11.856-5.9125 7.1837-5.9125-1.3542 0-2.0626-0.64641-1.5743-1.4365s2.7097-1.4365 4.9365-1.4365c4.9702 0 8.8349-3.7384 4.8359-4.6778-1.9108-0.44884-1.4599-0.90765 1.7193-1.7494 5.9354-1.5715 10.006-5.1895 7.5754-6.7323-1.149-0.72918-0.0929-1.1693 2.839-1.1831 4.0162-0.0189 4.6685-0.52375 4.6685-3.6131 0-3.1465 0.62247-3.5912 5.0276-3.5912 4.07 0 5.0276-0.54722 5.0276-2.8729 0-2.4899 0.95764-2.8729 7.1823-2.8729 7.0227 0 7.1823-0.0958 7.1823-4.3094 0-4.0318 0.35143-4.3094 5.4559-4.3094 4.315 0 6.4927-1.0418 10.414-4.982 3.5514-3.5683 6.2592-4.9949 9.5422-5.0276 5.7766-0.0575 7.2176-2.2748 3.877-5.966-3.256-3.5978-1.1691-7.7259 3.9057-7.7259 2.5183 0 3.5628 0.90646 3.9153 3.3977 0.2644 1.8687-0.2204 4.0988-1.0773 4.9558-4.2545 4.2545-1.654 5.2931 13.166 5.2584l14.724-0.0344 8.3117-10.021c4.5715-5.5114 9.4499-10.021 10.841-10.021s5.0758-2.6079 8.1882-5.7952l5.6589-5.7952 25.427 0.81704 6.4606 12.21c3.5534 6.7154 8.6683 15.863 11.367 20.327 2.7824 4.6035 4.906 10.044 4.906 12.569 0 3.7911 0.53305 4.452 3.5911 4.452 2.6335 0 3.5912-0.76611 3.5912-2.8729 0-2.0402 0.95764-2.8729 3.3038-2.8729 1.8171 0 3.9179 0.55522 4.6685 1.2338 1.8576 1.6796 20.335 4.512 29.435 4.512h7.4063l-0.50071-10.414c-0.46416-9.6544-0.28189-10.446 2.4979-10.843 4.3535-0.62202 7.3774 3.4625 5.1746 6.9896-0.94003 1.5052-1.7092 5.3312-1.7092 8.5021 0 4.8077 0.47721 5.7653 2.8729 5.7653 2.345 0 2.8729-0.95764 2.8729-5.2112v-5.2112l5.5191 0.88254c12.751 2.0389 39.011 2.8064 39.011 1.14 0-0.93422 2.1902-1.6554 5.0276-1.6554 4.7882 0 5.0276 0.23941 5.0276 5.0276v5.0276h53.606 53.606l5.6477-5.0265c5.0465-4.4914 6.5164-5.0266 13.809-5.0276 7.4696-1e-3 8.4281-0.37507 11.301-4.4102 1.7268-2.425 4.6403-4.9797 6.4745-5.6771 5.4331-2.0657 6.8136-6.2159 3.478-10.456-1.5627-1.9867-2.8413-4.3182-2.8413-5.1811 0-2.8768 3.9482-1.6159 6.332 2.0221 1.7572 2.6819 3.7086 3.6407 7.7066 3.7868 3.337 0.12193 4.1362 0.43011 2.1216 0.81814-1.7776 0.34238-3.232 1.0844-3.232 1.649s3.3936 4.3643 7.5414 8.4438l7.5414 7.4173 15.083 0.98817c14.877 0.97468 15.138 1.0541 19.138 5.8209l4.0548 4.8327h27.305 27.305l6.3467 5.2006c6.9048 5.6579 7.8406 9.1065 3.6174 13.33-3.0559 3.0559-1.5638 5.8895 3.1013 5.8895 1.52 0 2.2638 0.65781 1.7267 1.527-1.3513 2.1865 3.5417 7.0878 7.1018 7.1138 2.4153 0.0177 2.5922 0.28581 0.89631 1.3584-2.737 1.7309-1.3379 3.0286 4.554 4.224 3.792 0.76932 4.8324 1.7427 5.1959 4.8611 0.43739 3.7521 0.77603 3.8992 8.9779 3.8992 7.1432 0 8.5304-0.40705 8.567-2.5138 0.0411-2.3649 0.13201-2.3621 1.5345 0.0476 1.3596 2.3359 3.1542 2.4736 20.385 1.5639l18.894-0.99748-55.737 42.121h-312.23-312.23l-4.0833-9.101z" fill="#1a1a1a"/>
<g transform="translate(111.19 307.9)">
<path d="m206.38 453.46c0.33196-1.7238-0.4416-2.4973-2.4973-2.4973-2.0557 0-2.9782 0.92253-2.9782 2.9782 0 3.6811 4.7544 3.2635 5.4756-0.48094z" fill="#fff"/>
<path d="m213.58 453.35c0.31316-1.6147-0.50568-2.3948-2.5138-2.3948-1.638 0-2.9782 0.86187-2.9782 1.9153 0 4.3995 4.653 4.8057 5.492 0.47949z" fill="#fff"/>
<path d="m222.2 453.35c0.31316-1.6147-0.50567-2.3948-2.5138-2.3948-1.638 0-2.9782 0.86187-2.9782 1.9153 0 4.3995 4.653 4.8057 5.492 0.47949z" fill="#fff"/>
<path d="m229.63 453.83c0-1.9153-0.95765-2.8729-2.8729-2.8729-2.7683 0-3.8927 2.8108-1.9153 4.7882 1.9774 1.9774 4.7882 0.85305 4.7882-1.9153z" fill="#fff"/>
<path d="m236.81 453.83c0-1.5961-0.95764-2.8729-2.1547-2.8729-1.197 0-2.1547 1.2768-2.1547 2.8729 0 1.5961 0.95764 2.8729 2.1547 2.8729 1.197 0 2.1547-1.2768 2.1547-2.8729z" fill="#fff"/>
<path d="m245.43 453.83c0-1.5961-0.95764-2.8729-2.1547-2.8729-1.197 0-2.1547 1.2768-2.1547 2.8729 0 1.5961 0.95764 2.8729 2.1547 2.8729 1.197 0 2.1547-1.2768 2.1547-2.8729z" fill="#fff"/>
<path d="m252.62 453.83c0-1.5961-0.95764-2.8729-2.1547-2.8729-1.197 0-2.1547 1.2768-2.1547 2.8729 0 1.5961 0.95764 2.8729 2.1547 2.8729 1.197 0 2.1547-1.2768 2.1547-2.8729z" fill="#fff"/>
<path d="m261.23 453.83c0-1.5961-0.95764-2.8729-2.1547-2.8729-1.197 0-2.1547 1.2768-2.1547 2.8729 0 1.5961 0.95765 2.8729 2.1547 2.8729 1.197 0 2.1547-1.2768 2.1547-2.8729z" fill="#fff"/>
<path d="m269.85 453.83c0-1.9153-0.95765-2.8729-2.8729-2.8729-2.7683 0-3.8927 2.8108-1.9153 4.7882 1.9774 1.9774 4.7882 0.85305 4.7882-1.9153z" fill="#fff"/>
<path d="m278.47 453.83c0-1.5961-0.95764-2.8729-2.1547-2.8729-1.197 0-2.1547 1.2768-2.1547 2.8729 0 1.5961 0.95764 2.8729 2.1547 2.8729 1.197 0 2.1547-1.2768 2.1547-2.8729z" fill="#fff"/>
<path d="m285.65 453.83c0-1.5961-0.95764-2.8729-2.1547-2.8729-1.197 0-2.1547 1.2768-2.1547 2.8729 0 1.5961 0.95764 2.8729 2.1547 2.8729 1.197 0 2.1547-1.2768 2.1547-2.8729z" fill="#fff"/>
<path d="m294.27 453.83c0-1.5961-0.95764-2.8729-2.1547-2.8729-1.197 0-2.1547 1.2768-2.1547 2.8729 0 1.5961 0.95764 2.8729 2.1547 2.8729 1.197 0 2.1547-1.2768 2.1547-2.8729z" fill="#fff"/>
<path d="m302.62 453.46c0.33197-1.7238-0.44159-2.4973-2.4973-2.4973-2.0557 0-2.9782 0.92253-2.9782 2.9782 0 3.6811 4.7544 3.2635 5.4755-0.48094z" fill="#fff"/>
<path d="m310.07 453.83c0-1.9153-0.95765-2.8729-2.8729-2.8729-2.7683 0-3.8927 2.8108-1.9153 4.7882 1.9774 1.9774 4.7882 0.85305 4.7882-1.9153z" fill="#fff"/>
<path d="m317.26 453.83c0-1.9153-0.95765-2.8729-2.8729-2.8729-2.7683 0-3.8927 2.8108-1.9153 4.7882 1.9774 1.9774 4.7882 0.85305 4.7882-1.9153z" fill="#fff"/>
<path d="m325.62 453.35c0.31316-1.6147-0.50568-2.3948-2.5138-2.3948-1.638 0-2.9782 0.86187-2.9782 1.9153 0 4.3995 4.653 4.8057 5.492 0.47949z" fill="#fff"/>
<path d="m334.22 453.46c0.33196-1.7238-0.4416-2.4973-2.4973-2.4973-2.0557 0-2.9782 0.92253-2.9782 2.9782 0 3.6811 4.7544 3.2635 5.4756-0.48094z" fill="#fff"/>
<path d="m341.42 453.35c0.31316-1.6147-0.50568-2.3948-2.5138-2.3948-1.638 0-2.9782 0.86187-2.9782 1.9153 0 4.3995 4.653 4.8057 5.492 0.47949z" fill="#fff"/>
<path d="m348.86 453.83c0-1.9153-0.95764-2.8729-2.8729-2.8729-2.7683 0-3.8926 2.8108-1.9153 4.7882 1.9774 1.9774 4.7882 0.85305 4.7882-1.9153z" fill="#fff"/>
<path d="m357.48 453.83c0-1.9153-0.95765-2.8729-2.8729-2.8729-2.7683 0-3.8927 2.8108-1.9153 4.7882 1.9774 1.9774 4.7882 0.85305 4.7882-1.9153z" fill="#fff"/>
<path d="m364.66 453.83c0-1.5961-0.95765-2.8729-2.1547-2.8729s-2.1547 1.2768-2.1547 2.8729c0 1.5961 0.95765 2.8729 2.1547 2.8729s2.1547-1.2768 2.1547-2.8729z" fill="#fff"/>
<path d="m373.28 453.83c0-1.9153-0.95764-2.8729-2.8729-2.8729-2.7683 0-3.8927 2.8108-1.9153 4.7882 1.9774 1.9774 4.7882 0.85305 4.7882-1.9153z" fill="#fff"/>
<path d="m381.64 453.35c0.31316-1.6147-0.50568-2.3948-2.5138-2.3948-1.638 0-2.9782 0.86187-2.9782 1.9153 0 4.3995 4.653 4.8057 5.492 0.47949z" fill="#fff"/>
<path d="m390.52 453.83c0-1.9153-0.95765-2.8729-2.8729-2.8729-2.7683 0-3.8927 2.8108-1.9153 4.7882 1.9774 1.9774 4.7882 0.85305 4.7882-1.9153z" fill="#fff"/>
<path d="m430.47 453.46c0.33197-1.7238-0.44159-2.4973-2.4973-2.4973-2.0557 0-2.9782 0.92253-2.9782 2.9782 0 3.6811 4.7544 3.2635 5.4755-0.48094z" fill="#fff"/>
<path d="m437.92 453.83c0-1.5961-0.95765-2.8729-2.1547-2.8729s-2.1547 1.2768-2.1547 2.8729c0 1.5961 0.95765 2.8729 2.1547 2.8729s2.1547-1.2768 2.1547-2.8729z" fill="#fff"/>
<path d="m446.27 453.46c0.33197-1.7238-0.4416-2.4973-2.4973-2.4973-2.0557 0-2.9782 0.92253-2.9782 2.9782 0 3.6811 4.7544 3.2635 5.4756-0.48094z" fill="#fff"/>
<path d="m453.72 453.83c0-1.9153-0.95764-2.8729-2.8729-2.8729-2.7683 0-3.8927 2.8108-1.9153 4.7882 1.9774 1.9774 4.7882 0.85305 4.7882-1.9153z" fill="#fff"/>
<path d="m58.424 451.34c-0.72112-3.7445-5.4756-4.1621-5.4756-0.48094 0 2.0557 0.92253 2.9782 2.9782 2.9782 2.0557 0 2.8293-0.77355 2.4973-2.4973z" fill="#fff"/>
<path d="m65.876 450.96c0-1.9153-0.95764-2.8729-2.8729-2.8729-1.9153 0-2.8729 0.95764-2.8729 2.8729 0 1.9153 0.95764 2.8729 2.8729 2.8729 1.9153 0 2.8729-0.95764 2.8729-2.8729z" fill="#fff"/>
<path d="m74.495 450.96c0-1.9153-0.95764-2.8729-2.8729-2.8729-1.9153 0-2.8729 0.95764-2.8729 2.8729 0 1.9153 0.95764 2.8729 2.8729 2.8729 1.9153 0 2.8729-0.95764 2.8729-2.8729z" fill="#fff"/>
<path d="m246.59 440.51 0.43944-6.8631-41.1 0.79809-0.46033 4.8052c-0.85946 8.9718-0.88098 8.963 20.9 8.5227l19.781-0.39984 0.43946-6.8631z" fill="#fff"/>
<path d="m318.69 440.89v-7.1434l-70.386 0.0518v7.0834 7.0834l70.386 0.068v-7.1434z" fill="#fff"/>
<path d="m458.03 440.9v-7.1823h-20.11-20.11v6.2246c0 3.4236 0.43093 6.6556 0.95764 7.1823 0.52669 0.5267 9.5764 0.95764 20.11 0.95764h19.153v-7.1823z" fill="#fff"/>
<path d="m499.69 440.9v-7.1823h-20.11-20.11v7.1823 7.1823h20.11 20.11v-7.1823z" fill="#fff"/>
<path d="m541.06 440.55 0.43782-6.8232h-20.189-20.189v7.2228 7.2228l39.503-0.7993 0.43781-6.8232z" fill="#fff"/>
<path d="m92.896 442.7c-0.26626-1.3826-1.436-2.5138-2.5995-2.5138-1.1634 0-2.3332 1.1312-2.5994 2.5138-0.33967 1.7638 0.43594 2.5138 2.5994 2.5138 2.1635 0 2.9391-0.75004 2.5995-2.5138z" fill="#fff"/>
<path d="m100.35 442.34c0-1.5961-0.95764-2.8729-2.1547-2.8729-1.197 0-2.1547 1.2768-2.1547 2.8729 0 1.5961 0.95764 2.8729 2.1547 2.8729 1.197 0 2.1547-1.2768 2.1547-2.8729z" fill="#fff"/>
<path d="m108.97 442.24c0-2.0557-0.77356-2.8293-2.4973-2.4973-3.7445 0.72111-4.1621 5.4755-0.48094 5.4755 2.0557 0 2.9782-0.92252 2.9782-2.9782z" fill="#fff"/>
<path d="m117.32 442.72c-0.72112-3.7445-5.4756-4.1621-5.4756-0.48095 0 2.0557 0.92253 2.9782 2.9782 2.9782 2.0557 0 2.8293-0.77355 2.4973-2.4973z" fill="#fff"/>
<path d="m124.5 442.7c-0.26626-1.3826-1.436-2.5138-2.5995-2.5138-1.1634 0-2.3332 1.1312-2.5994 2.5138-0.33967 1.7638 0.43593 2.5138 2.5994 2.5138s2.9391-0.75004 2.5995-2.5138z" fill="#fff"/>
<path d="m133.12 442.72c-0.72112-3.7445-5.4756-4.1621-5.4756-0.48093 0 2.0557 0.92253 2.9782 2.9782 2.9782s2.8293-0.77355 2.4973-2.4973z" fill="#fff"/>
<path d="m140.3 442.7c-0.26626-1.3826-1.436-2.5138-2.5995-2.5138s-2.3332 1.1312-2.5994 2.5138c-0.33967 1.7638 0.43593 2.5138 2.5994 2.5138s2.9391-0.75004 2.5995-2.5138z" fill="#fff"/>
<path d="m148.92 442.7c-0.26626-1.3826-1.436-2.5138-2.5994-2.5138s-2.3332 1.1312-2.5995 2.5138c-0.33967 1.7638 0.43594 2.5138 2.5995 2.5138s2.9391-0.75004 2.5994-2.5138z" fill="#fff"/>
<path d="m157.54 442.72c-0.72112-3.7445-5.4756-4.1621-5.4756-0.48093 0 2.0557 0.92253 2.9782 2.9782 2.9782 2.0557 0 2.8293-0.77355 2.4973-2.4973z" fill="#fff"/>
<path d="m166.15 442.7c-0.26626-1.3826-1.436-2.5138-2.5995-2.5138-1.1634 0-2.3332 1.1312-2.5994 2.5138-0.33967 1.7638 0.43593 2.5138 2.5994 2.5138s2.9391-0.75004 2.5995-2.5138z" fill="#fff"/>
<path d="m173.34 442.7c-0.26626-1.3826-1.436-2.5138-2.5995-2.5138s-2.3332 1.1312-2.5994 2.5138c-0.33967 1.7638 0.43593 2.5138 2.5994 2.5138s2.9391-0.75004 2.5995-2.5138z" fill="#fff"/>
<path d="m181.96 442.7c-0.26626-1.3826-1.436-2.5138-2.5995-2.5138s-2.3332 1.1312-2.5995 2.5138c-0.33966 1.7638 0.43594 2.5138 2.5995 2.5138s2.9391-0.75004 2.5995-2.5138z" fill="#fff"/>
<path d="m189.41 442.24c0-3.6811-4.7544-3.2635-5.4755 0.48094-0.33197 1.7238 0.44159 2.4973 2.4973 2.4973 2.0557 0 2.9782-0.92252 2.9782-2.9782z" fill="#fff"/>
<path d="m197.76 442.7c-0.26626-1.3826-1.436-2.5138-2.5994-2.5138-1.1634 0-2.3332 1.1312-2.5995 2.5138-0.33967 1.7638 0.43594 2.5138 2.5995 2.5138s2.9391-0.75004 2.5994-2.5138z" fill="#fff"/>
<path d="m361.19 430.85c270.27 0 305.13-0.24618 305.13-2.1547 0-1.9086-34.814-2.1495-304.89-2.109-251.24 0.0376-305.33 0.38146-307.4 1.9539-3.1333 2.3785-3.2829 4.3487-0.24163 3.1817 1.2497-0.47955 139.58-0.87191 307.4-0.87191z" fill="#fff"/>
<path d="m656.26 420.08c0-1.9083-33.806-2.1547-295.64-2.1547-257.72 0-295.99 0.27051-298.42 2.109-2.4546 1.8566 32.928 2.1145 295.64 2.1547 264.33 0.0405 298.42-0.20049 298.42-2.109z" fill="#fff"/>
<path d="m650.51 412.18c0-2.8635-0.94698-2.8728-287.65-2.841-283.26 0.0315-287.71 0.0748-291.24 2.841-3.5672 2.7903-1.653 2.8092 287.65 2.841 290.29 0.0318 291.24 0.0226 291.24-2.841z" fill="#fff"/>
<path d="m641.9 404.28c0-1.9079-32.141-2.1547-280.65-2.1547-247.72 0-280.86 0.25286-282.44 2.1547-1.5885 1.914 29.757 2.1547 280.65 2.1547 250.1 0 282.44-0.24671 282.44-2.1547z" fill="#fff"/>
<path d="m630.13 396.02c0.45968-2.387-13.123-2.5115-269.32-2.4681-274.51 0.0465-274.83 0.0521-274.83 4.7849 0 0.50749 122.32 0.75943 271.83 0.55987 257.58-0.34381 271.86-0.49463 272.31-2.8766z" fill="#fff"/>
<path d="m610.29 390.95c0-0.61447-1.3002-2.2305-2.8893-3.5911-2.7091-2.3196-17.899-2.4739-243.48-2.4739h-240.59v3.5912 3.5911h243.48c133.91 0 243.48-0.50275 243.48-1.1172z" fill="#fff"/>
<path d="m142.01 378.42c0-1.197-1.2768-2.1547-2.8729-2.1547-1.5961 0-2.8729 0.95764-2.8729 2.1547 0 1.197 1.2768 2.1547 2.8729 2.1547 1.5961 0 2.8729-0.95764 2.8729-2.1547z" fill="#fff"/>
<path d="m149.19 378.42c0-1.197-1.2768-2.1547-2.8729-2.1547-1.5961 0-2.8729 0.95764-2.8729 2.1547 0 1.197 1.2768 2.1547 2.8729 2.1547 1.5961 0 2.8729-0.95764 2.8729-2.1547z" fill="#fff"/>
<path d="m157.81 378.42c0-1.197-1.2768-2.1547-2.8729-2.1547-1.5961 0-2.8729 0.95764-2.8729 2.1547 0 1.197 1.2768 2.1547 2.8729 2.1547 1.5961 0 2.8729-0.95764 2.8729-2.1547z" fill="#fff"/>
<path d="m164.99 378.42c0-1.197-1.2768-2.1547-2.8729-2.1547-1.5961 0-2.8729 0.95764-2.8729 2.1547 0 1.197 1.2768 2.1547 2.8729 2.1547 1.5961 0 2.8729-0.95764 2.8729-2.1547z" fill="#fff"/>
<path d="m173.25 378.78c-0.905-2.718-5.3874-3.1045-5.3874-0.46444 0 1.3325 1.2282 2.26 2.9926 2.26 1.7553 0 2.7454-0.74238 2.3948-1.7956z" fill="#fff"/>
<path d="m180.79 378.42c0-1.197-1.2769-2.1547-2.8729-2.1547s-2.8729 0.95764-2.8729 2.1547c0 1.197 1.2768 2.1547 2.8729 2.1547s2.8729-0.95764 2.8729-2.1547z" fill="#fff"/>
<path d="m189.41 378.42c0-1.197-1.2768-2.1547-2.8729-2.1547s-2.8729 0.95764-2.8729 2.1547c0 1.197 1.2769 2.1547 2.8729 2.1547s2.8729-0.95764 2.8729-2.1547z" fill="#fff"/>
<path d="m196.59 378.42c0-1.1851-0.9696-2.1547-2.1547-2.1547s-2.1547 0.96961-2.1547 2.1547c0 1.1851 0.96961 2.1547 2.1547 2.1547s2.1547-0.96961 2.1547-2.1547z" fill="#fff"/>
<path d="m213.83 378.42c0-1.197-1.2768-2.1547-2.8729-2.1547-1.5961 0-2.8729 0.95764-2.8729 2.1547 0 1.197 1.2768 2.1547 2.8729 2.1547 1.5961 0 2.8729-0.95764 2.8729-2.1547z" fill="#fff"/>
<path d="m222.45 378.42c0-1.197-1.2769-2.1547-2.8729-2.1547s-2.8729 0.95764-2.8729 2.1547c0 1.197 1.2769 2.1547 2.8729 2.1547s2.8729-0.95764 2.8729-2.1547z" fill="#fff"/>
<path d="m231.07 378.42c0-1.197-1.2768-2.1547-2.8729-2.1547-1.5961 0-2.8729 0.95764-2.8729 2.1547 0 1.197 1.2768 2.1547 2.8729 2.1547 1.5961 0 2.8729-0.95764 2.8729-2.1547z" fill="#fff"/>
<path d="m238.25 378.42c0-1.197-1.2768-2.1547-2.8729-2.1547-1.5961 0-2.8729 0.95764-2.8729 2.1547 0 1.197 1.2768 2.1547 2.8729 2.1547 1.5961 0 2.8729-0.95764 2.8729-2.1547z" fill="#fff"/>
<path d="m245.43 378.42c0-1.197-1.2768-2.1547-2.8729-2.1547-1.5961 0-2.8729 0.95764-2.8729 2.1547 0 1.197 1.2768 2.1547 2.8729 2.1547 1.5961 0 2.8729-0.95764 2.8729-2.1547z" fill="#fff"/>
<text x="204.73792" y="364.29111" fill="#ffff00" font-family="Sans" font-size="31.408px" font-weight="bold" letter-spacing="0px" word-spacing="0px" style="line-height:125%" xml:space="preserve"><tspan x="204.73792" y="364.29111">D</tspan></text>
<text x="629.41602" y="445.06061" fill="#ffff00" font-family="Sans" font-size="10.347px" font-weight="bold" letter-spacing="0px" word-spacing="0px" style="line-height:125%" xml:space="preserve"><tspan x="629.41602" y="445.06061">1967</tspan></text>
</g>
<path transform="matrix(1.2595 0 0 1.2595 -168.34 198.02)" d="m637.74 361.98c0 1.4605-1.184 2.6444-2.6444 2.6444-1.4605 0-2.6444-1.184-2.6444-2.6444 0-1.4605 1.1839-2.6444 2.6444-2.6444 1.4515 0 2.6317 1.17 2.6443 2.6215" color="#000000" fill="#f00" stroke="#f00" stroke-linecap="round" stroke-linejoin="round"/>
<path transform="matrix(1.2595 0 0 1.2595 -545.73 199.09)" d="m637.74 361.98c0 1.4605-1.184 2.6444-2.6444 2.6444-1.4605 0-2.6444-1.184-2.6444-2.6444 0-1.4605 1.1839-2.6444 2.6444-2.6444 1.4515 0 2.6317 1.17 2.6443 2.6215" color="#000000" fill="#f00" stroke="#f00" stroke-linecap="round" stroke-linejoin="round"/>
<path transform="matrix(1.2595 0 0 1.2595 -378.95 209.78)" d="m637.74 361.98c0 1.4605-1.184 2.6444-2.6444 2.6444-1.4605 0-2.6444-1.184-2.6444-2.6444 0-1.4605 1.1839-2.6444 2.6444-2.6444 1.4515 0 2.6317 1.17 2.6443 2.6215" color="#000000" fill="#f00" stroke="#f00" stroke-linecap="round" stroke-linejoin="round"/>
<path transform="matrix(1.2595 0 0 1.2595 -644.09 293.17)" d="m637.74 361.98c0 1.4605-1.184 2.6444-2.6444 2.6444-1.4605 0-2.6444-1.184-2.6444-2.6444 0-1.4605 1.1839-2.6444 2.6444-2.6444 1.4515 0 2.6317 1.17 2.6443 2.6215" color="#000000" fill="#f00" stroke="#f00" stroke-linecap="round" stroke-linejoin="round"/>
<path transform="matrix(1.2595 0 0 1.2595 21.961 284.62)" d="m637.74 361.98c0 1.4605-1.184 2.6444-2.6444 2.6444-1.4605 0-2.6444-1.184-2.6444-2.6444 0-1.4605 1.1839-2.6444 2.6444-2.6444 1.4515 0 2.6317 1.17 2.6443 2.6215" color="#000000" fill="#f00" stroke="#f00" stroke-linecap="round" stroke-linejoin="round"/>
</g>
<g transform="matrix(-1 0 0 1 932.79 0)" fill="#ccc" stroke="#ccc" stroke-linecap="round" stroke-linejoin="round">
<path transform="translate(0 308.27)" d="m812.52 94.081c0 23.618-19.146 42.764-42.764 42.764s-42.764-19.146-42.764-42.764c0-23.618 19.146-42.764 42.764-42.764 23.473 0 42.559 18.921 42.762 42.393" color="#000000"/>
<path transform="matrix(.047654 0 0 .047654 472.21 412.83)" d="m812.52 94.081c0 23.618-19.146 42.764-42.764 42.764s-42.764-19.146-42.764-42.764c0-23.618 19.146-42.764 42.764-42.764 23.473 0 42.559 18.921 42.762 42.393" color="#000000"/>
<path transform="matrix(.047654 0 0 .047654 374.92 439.56)" d="m812.52 94.081c0 23.618-19.146 42.764-42.764 42.764s-42.764-19.146-42.764-42.764c0-23.618 19.146-42.764 42.764-42.764 23.473 0 42.559 18.921 42.762 42.393" color="#000000"/>
<path transform="matrix(.047654 0 0 .047654 327.88 404.28)" d="m812.52 94.081c0 23.618-19.146 42.764-42.764 42.764s-42.764-19.146-42.764-42.764c0-23.618 19.146-42.764 42.764-42.764 23.473 0 42.559 18.921 42.762 42.393" color="#000000"/>
<path transform="matrix(.047654 0 0 .047654 353.54 331.58)" d="m812.52 94.081c0 23.618-19.146 42.764-42.764 42.764s-42.764-19.146-42.764-42.764c0-23.618 19.146-42.764 42.764-42.764 23.473 0 42.559 18.921 42.762 42.393" color="#000000"/>
<path transform="matrix(.047654 0 0 .047654 532.08 453.46)" d="m812.52 94.081c0 23.618-19.146 42.764-42.764 42.764s-42.764-19.146-42.764-42.764c0-23.618 19.146-42.764 42.764-42.764 23.473 0 42.559 18.921 42.762 42.393" color="#000000"/>
<path transform="matrix(.047654 0 0 .047654 562.01 518.67)" d="m812.52 94.081c0 23.618-19.146 42.764-42.764 42.764s-42.764-19.146-42.764-42.764c0-23.618 19.146-42.764 42.764-42.764 23.473 0 42.559 18.921 42.762 42.393" color="#000000"/>
<path transform="matrix(.047654 0 0 .047654 85.196 391.45)" d="m812.52 94.081c0 23.618-19.146 42.764-42.764 42.764s-42.764-19.146-42.764-42.764c0-23.618 19.146-42.764 42.764-42.764 23.473 0 42.559 18.921 42.762 42.393" color="#000000"/>
<path transform="matrix(.047654 0 0 .047654 209.21 483.39)" d="m812.52 94.081c0 23.618-19.146 42.764-42.764 42.764s-42.764-19.146-42.764-42.764c0-23.618 19.146-42.764 42.764-42.764 23.473 0 42.559 18.921 42.762 42.393" color="#000000"/>
</g>
<path d="m4.2764 760.5h1042.4v287.59h-1042.4z" color="#000000" fill="#00112b" filter="url(#a)" opacity=".85776"/>
<rect x="4.2764" y="811.81" width="1042.4" height="236.27" color="#000000" fill="#00112b" filter="url(#c)" opacity=".85776"/>
<rect x="4.2764" y="882.38" width="1042.4" height="165.71" color="#000000" fill="#00112b" filter="url(#b)" opacity=".85776"/>
<rect x="4.2764" y="956.14" width="1042.4" height="91.943" color="#000000" fill="#00112b" opacity=".85776"/>
</g>
</svg>
